<svg width="493" height="83" viewBox="0 0 493 83" fill="none" xmlns="http://www.w3.org/2000/svg">
<path d="M9.9 27.3L9.8 18V13.3C9.53333 11.6333 8.1 10.6667 5.5 10.4L0.5 9.9V6.2H19.4C20.2 8.53333 34.5 27.8333 62.3 64.1C62.0333 60.3667 61.9 53.7333 61.9 44.2C61.9 34.6 61.7667 25.4 61.5 16.6C61.4333 14.2667 60.9333 12.7 60 11.9C59.0667 11.0333 56.5667 10.4 52.5 10V6.2H76.7V9.8C72.2333 10.2 69.5333 11.1 68.6 12.5L68 15.6C67.5333 31.8 67.3 47.8 67.3 63.6L67.5 80H61.6C58.9333 76 55.5667 71.4333 51.5 66.3C47.4333 61.1 44.1333 56.9 41.6 53.7C36.5333 47.1667 27.8 36.0333 15.4 20.3V51C15.7333 63.7333 15.9 70.7333 15.9 72C15.9 73.2667 16.6333 74.2 18.1 74.8C19.6333 75.4 21.7667 75.8333 24.5 76.1V80H0.9V76.4C6.1 75.9333 8.86667 74.4667 9.2 72C9.66667 68.6667 9.9 56.3333 9.9 35V27.3ZM81.9344 40.1C83.001 37.6333 85.5677 34.9667 89.6344 32.1C93.701 29.1667 97.3677 27.7 100.634 27.7C103.968 27.7 106.801 28.0667 109.134 28.8C111.468 29.5333 113.301 30.6333 114.634 32.1C115.968 33.5 117.034 34.9 117.834 36.3C118.701 37.6333 119.268 39.3333 119.534 41.4C120.068 44.7333 120.334 47.2667 120.334 49V51.9C118.201 53.2333 114.701 53.9 109.834 53.9H89.3344C89.3344 61.0333 89.8677 65.6 90.9344 67.6C92.5344 70.5333 94.5344 72.3667 96.9344 73.1C98.4677 73.5667 100.268 73.8 102.334 73.8C108.134 73.8 113.434 71.4333 118.234 66.7L120.434 69C120.168 69.2667 119.534 69.9333 118.534 71C117.534 72 116.868 72.6667 116.534 73C116.201 73.3333 115.568 73.9667 114.634 74.9C113.701 75.7667 112.968 76.3667 112.434 76.7C111.968 77.0333 111.268 77.5333 110.334 78.2C109.468 78.8667 108.701 79.3333 108.034 79.6C107.434 79.8667 106.668 80.2 105.734 80.6C104.201 81.2 102.401 81.5 100.334 81.5C96.3344 81.5 92.901 80.7333 90.0344 79.2C87.2344 77.6 85.1344 75.4667 83.7344 72.8C81.0677 67.9333 79.7344 62.1333 79.7344 55.4C79.7344 48.6667 80.4677 43.5667 81.9344 40.1ZM89.5344 49.4H95.2344C104.101 49.4 109.368 48.8 111.034 47.6C111.034 44.7333 110.568 42.2667 109.634 40.2C107.901 36.2 104.834 34.2 100.434 34.2C96.0344 34.2 93.101 35.3333 91.6344 37.6C90.2344 39.8 89.5344 43.7333 89.5344 49.4ZM132.814 61.2L133.114 35.2H124.414V32.2L133.114 30.5V21.3L140.814 18.9C141.814 18.9 142.314 19.4 142.314 20.4L142.114 26.5V29.6H154.814L154.514 35.2H142.114L141.814 59.9C141.814 65.0333 142.114 68.7333 142.714 71C143.381 73.2667 144.581 74.4 146.314 74.4C148.047 74.4 150.547 73.4333 153.814 71.5L155.914 73.5C150.781 78.8333 146.581 81.5 143.314 81.5C138.981 81.5 136.147 80.0333 134.814 77.1C133.481 74.1667 132.814 68.8667 132.814 61.2Z" fill="white"/>
<path d="M156.91 9.9V6.2H182.91V9.9C179.443 10.1667 177.143 10.5333 176.01 11C174.943 11.4 174.41 12.2667 174.41 13.6C174.41 14.8667 176.243 22.7667 179.91 37.3C183.577 51.7667 185.977 60.4333 187.11 63.3C189.043 58.4333 192.11 49.2 196.31 35.6C200.577 22 202.71 14.6 202.71 13.4C202.71 12.1333 202.143 11.3 201.01 10.9C199.877 10.4333 197.91 10.1 195.11 9.9V6.2H222.81V9.9C218.277 10.1667 216.01 11.2667 216.01 13.2C216.01 13.7333 216.777 17.1333 218.31 23.4C223.177 42.8 227.043 56.1 229.91 63.3C232.777 54.7 235.81 44.7 239.01 33.3C242.21 21.8333 243.81 15.4667 243.81 14.2C243.81 12.8667 243.177 11.9333 241.91 11.4C240.71 10.8 238.577 10.3667 235.51 10.1V6.2H256.91V9.8C255.31 9.93333 254.11 10.3333 253.31 11C252.51 11.6 251.843 12.6 251.31 14C238.577 55.7333 231.977 77.7333 231.51 80H224.11C222.977 74.5333 220.277 65.2 216.01 52C211.81 38.8 208.61 29.1667 206.41 23.1C204.677 27.7 201.343 37.5667 196.41 52.7C191.543 67.7667 188.843 76.8667 188.31 80H180.51C180.177 77.2667 174.677 57.4 164.01 20.4L162.71 16.2C162.243 14.1333 161.61 12.6 160.81 11.6C160.01 10.6 158.71 10.0333 156.91 9.9ZM262.11 40.1C263.177 37.6333 265.743 34.9667 269.81 32.1C273.877 29.1667 277.543 27.7 280.81 27.7C284.143 27.7 286.977 28.0667 289.31 28.8C291.643 29.5333 293.477 30.6333 294.81 32.1C296.143 33.5 297.21 34.9 298.01 36.3C298.877 37.6333 299.443 39.3333 299.71 41.4C300.243 44.7333 300.51 47.2667 300.51 49V51.9C298.377 53.2333 294.877 53.9 290.01 53.9H269.51C269.51 61.0333 270.043 65.6 271.11 67.6C272.71 70.5333 274.71 72.3667 277.11 73.1C278.643 73.5667 280.443 73.8 282.51 73.8C288.31 73.8 293.61 71.4333 298.41 66.7L300.61 69C300.343 69.2667 299.71 69.9333 298.71 71C297.71 72 297.043 72.6667 296.71 73C296.377 73.3333 295.743 73.9667 294.81 74.9C293.877 75.7667 293.143 76.3667 292.61 76.7C292.143 77.0333 291.443 77.5333 290.51 78.2C289.643 78.8667 288.877 79.3333 288.21 79.6C287.61 79.8667 286.843 80.2 285.91 80.6C284.377 81.2 282.577 81.5 280.51 81.5C276.51 81.5 273.077 80.7333 270.21 79.2C267.41 77.6 265.31 75.4667 263.91 72.8C261.243 67.9333 259.91 62.1333 259.91 55.4C259.91 48.6667 260.643 43.5667 262.11 40.1ZM269.71 49.4H275.41C284.277 49.4 289.543 48.8 291.21 47.6C291.21 44.7333 290.743 42.2667 289.81 40.2C288.077 36.2 285.01 34.2 280.61 34.2C276.21 34.2 273.277 35.3333 271.81 37.6C270.41 39.8 269.71 43.7333 269.71 49.4ZM351.49 81.4L351.59 83L347.19 82.7C347.19 81.2333 346.657 80.3333 345.59 80C344.59 79.7333 341.957 79.6 337.69 79.6C333.49 79.6 323.59 79.7333 307.99 80L306.89 77.4L337.59 34.3C337.59 34.0333 334.19 33.9 327.39 33.9C325.657 33.9 324.123 33.9 322.79 33.9C321.523 33.9 320.29 34.1 319.09 34.5C317.957 34.9 317.19 35.3 316.79 35.7C316.457 36.0333 315.99 36.8667 315.39 38.2C314.79 39.5333 314.357 40.8 314.09 42C313.823 43.2 313.39 45.1667 312.79 47.9H308.99C309.123 44.7 309.223 41.1 309.29 37.1C309.423 33.0333 309.59 30.7 309.79 30.1C309.99 29.4333 310.557 29.1 311.49 29.1L326.99 29.4L348.29 29C350.223 29 351.19 29.6667 351.19 31C351.19 32.3333 349.09 35.5333 344.89 40.6L342.29 43.8C337.557 49.7333 333.523 55.2 330.19 60.2C324.723 68.2 321.99 72.9333 321.99 74.4C321.99 74.7333 322.423 74.9 323.29 74.9C329.557 74.9 335.39 74.6 340.79 74C342.257 73.8 343.423 73.3667 344.29 72.7C345.223 71.9667 345.69 71.5667 345.69 71.5C345.757 71.3667 345.89 71 346.09 70.4C346.357 69.8 347.157 66.9333 348.49 61.8L352.69 62.1C351.89 69.4333 351.49 75.8667 351.49 81.4ZM396.652 40.8L396.252 67.2C396.252 68.8667 396.986 70.9 398.452 73.3C399.986 75.6333 400.752 77 400.752 77.4C400.752 77.7333 400.452 78 399.852 78.2C395.186 79.7333 392.552 80.5 391.952 80.5C391.419 80.5 390.852 80.0333 390.252 79.1C389.719 78.1 389.219 76.9 388.752 75.5C388.286 74.1 388.019 73.3667 387.952 73.3C386.952 73.9667 385.719 74.8 384.252 75.8C382.786 76.8 381.752 77.5 381.152 77.9C380.619 78.2333 379.819 78.6667 378.752 79.2C377.752 79.7333 376.852 80.1 376.052 80.3C374.186 80.7667 371.652 81 368.452 81C365.319 81 362.986 79.7333 361.452 77.2C359.919 74.6667 359.152 71.9 359.152 68.9C359.152 65.9 359.386 63.5 359.852 61.7C360.319 59.9 361.086 58.4 362.152 57.2C363.219 56 364.286 55 365.352 54.2C366.419 53.4 367.919 52.7333 369.852 52.2C371.852 51.6 373.552 51.1667 374.952 50.9C376.419 50.5667 378.452 50.1667 381.052 49.7C383.652 49.1667 385.752 48.7333 387.352 48.4L387.452 42.4C387.452 39.3333 386.352 37.1333 384.152 35.8C381.952 34.4667 379.286 33.8 376.152 33.8C373.086 33.8 370.952 34.6 369.752 36.2C368.552 37.7333 367.252 41.0667 365.852 46.2L361.752 45.8C361.752 40 362.752 35.9333 364.752 33.6C367.152 30.8 369.752 29.0667 372.552 28.4C375.352 27.7333 378.186 27.4 381.052 27.4C383.986 27.4 386.486 27.7333 388.552 28.4C390.619 29.0667 392.152 29.8333 393.152 30.7C394.219 31.5 395.019 32.6333 395.552 34.1C396.152 35.5 396.486 36.6333 396.552 37.5C396.619 38.3667 396.652 39.4667 396.652 40.8ZM368.152 66.9C368.152 71.8333 370.386 74.3 374.852 74.3C378.786 74.3 382.752 72.6333 386.752 69.3C387.219 68.9 387.452 66.4667 387.452 62C387.452 57.5333 387.419 54.3 387.352 52.3C386.152 52.7 384.619 53.2 382.752 53.8C380.952 54.4 379.652 54.8333 378.852 55.1C378.119 55.3667 377.119 55.7333 375.852 56.2C374.586 56.6 373.719 56.9333 373.252 57.2C372.852 57.4667 372.252 57.8 371.452 58.2C370.719 58.6 370.252 59 370.052 59.4C369.852 59.7333 369.552 60.1667 369.152 60.7C368.752 61.1667 368.519 61.7333 368.452 62.4C368.252 64.2667 368.152 65.7667 368.152 66.9ZM422.306 43.8L422.206 70.9C422.206 72.9667 422.806 74.3333 424.006 75C425.206 75.6 427.006 76.0667 429.406 76.4C431.873 76.7333 433.206 76.9 433.406 76.9V80H405.406V76.6C407.006 76.4 408.073 76.3 408.606 76.3C409.14 76.2333 409.806 76.0333 410.606 75.7C411.473 75.3 411.973 74.9667 412.106 74.7C412.24 74.3667 412.44 73.7 412.706 72.7C412.973 71.7 413.106 70.7 413.106 69.7V61.8C413.106 48.4 412.873 40.5333 412.406 38.2C411.873 35.6 409.94 34.3 406.606 34.3L406.406 30.5C409.073 30.2333 411.806 29.6 414.606 28.6C417.406 27.6 419.206 27.1 420.006 27.1C420.806 27.1 421.373 27.5 421.706 28.3C422.04 29.0333 422.206 30.4 422.206 32.4L422.306 36.2C428.173 30.5333 432.806 27.7 436.206 27.7C438.673 27.7 440.373 28 441.306 28.6C442.24 29.2 442.706 30.3 442.706 31.9C442.706 32.4333 442.173 36.0333 441.106 42.7H437.506C437.173 37.7 435.473 35.2 432.406 35.2C430.673 35.2 428.54 36 426.006 37.6C423.54 39.1333 422.306 41.2 422.306 43.8ZM478.45 28.6L478.25 13.6C478.25 11.4667 478.217 10 478.15 9.2C478.15 8.33333 477.817 7.6 477.15 7C476.55 6.4 475.917 6.1 475.25 6.1C474.65 6.03333 473.317 5.96666 471.25 5.89999L471.05 2.6C476.117 2.13333 479.85 1.63333 482.25 1.1C484.65 0.499996 485.95 0.199996 486.15 0.199996C487.283 0.199996 487.85 0.733329 487.85 1.79999C487.85 16.1333 487.717 29.9 487.45 43.1C487.25 56.2333 487.15 63.9667 487.15 66.3C487.15 68.5667 487.983 70.9667 489.65 73.5C491.383 76.0333 492.25 77.3667 492.25 77.5C492.25 77.6333 491.95 77.8333 491.35 78.1C490.817 78.3 490.117 78.5333 489.25 78.8C488.383 79.0667 487.25 79.5 485.85 80.1C484.517 80.7 483.583 81 483.05 81C482.517 81 481.983 80.4667 481.45 79.4C480.917 78.2667 480.383 77.0333 479.85 75.7C479.383 74.3667 478.983 73.5333 478.65 73.2C473.65 78.7333 469.217 81.5 465.35 81.5C462.017 81.5 458.15 79.6667 453.75 76C451.483 74.2 449.583 71.5333 448.05 68C446.517 64.4667 445.75 60.6333 445.75 56.5C445.75 52.3667 445.95 48.9333 446.35 46.2C446.75 43.4667 447.183 41.3667 447.65 39.9C448.117 38.3667 448.817 37 449.75 35.8C450.75 34.6 451.483 33.8 451.95 33.4C452.483 33 453.317 32.4667 454.45 31.8L457.85 29.8C460.717 28.0667 463.85 27.2 467.25 27.2C470.717 27.2 474.45 27.6667 478.45 28.6ZM454.55 50.9C454.55 58.5667 455.85 64.1667 458.45 67.7C461.117 71.1667 464.35 72.9 468.15 72.9C471.95 72.9 475.417 71.4 478.55 68.4C478.55 56.7333 478.483 48.4667 478.35 43.6C478.283 38.6667 478.25 36.0667 478.25 35.8C475.117 33.9333 471.183 33 466.45 33C464.45 33 462.817 33.2 461.55 33.6C460.35 33.9333 459.15 34.7333 457.95 36C455.683 38.2667 454.55 43.2333 454.55 50.9Z" fill="#FFAC33"/>
</svg>
