<?xml version="1.0" encoding="UTF-8"?>
<svg width="50px" height="9px" viewBox="0 0 50 9" version="1.1" xmlns="http://www.w3.org/2000/svg" xmlns:xlink="http://www.w3.org/1999/xlink">
    <!-- Generator: Sketch 53.2 (72643) - https://sketchapp.com -->
    <title>the verge@3x</title>
    <desc>Created with Sketch.</desc>
    <defs>
        <polygon id="path-1" points="0.00451754386 0.379885714 4.99385965 0.379885714 4.99385965 8.36031429 0.00451754386 8.36031429"></polygon>
    </defs>
    <g id="Mobile" stroke="none" stroke-width="1" fill="none" fill-rule="evenodd">
        <g id="the-verge">
            <path d="M40.8675,8.59474286 C39.4201316,8.3466 38.2192544,7.40331429 37.6749561,6.08588571 C37.3942544,5.40788571 37.2995175,4.24517143 37.4675,3.54702857 C37.7065351,2.55317143 38.3508333,1.6446 39.188114,1.11788571 C39.9310965,0.650742857 40.5192544,0.518742857 42.0745175,0.471171429 L43.4679386,0.428742857 L43.4679386,1.85717143 L43.4679386,3.28602857 L42.9319737,3.07217143 C42.5797807,2.9316 42.1753947,2.84631429 41.7534649,2.82317143 C41.1530263,2.7906 41.0832895,2.80517143 40.7069737,3.04217143 C40.1675,3.38245714 39.9192544,3.85131429 39.9139912,4.53702857 C39.9104825,4.98145714 39.946886,5.10574286 40.1710088,5.41774286 C40.5179386,5.90202857 40.9911842,6.15788571 41.5385526,6.15788571 C42.1074123,6.15788571 42.1995175,6.08931429 42.1661842,5.69031429 L42.1389912,5.36288571 L41.4745175,5.36674286 L40.8100439,5.37145714 L40.8100439,4.44317143 L40.8100439,3.51531429 L42.6104825,3.53974286 L44.4104825,3.56417143 L44.4104825,5.26945714 C44.4104825,6.30617143 44.4482018,7.0806 44.5060965,7.24345714 C44.6262719,7.58117143 44.5135526,7.71831429 43.8175,8.08131429 C42.9784649,8.51974286 41.7135526,8.7396 40.8675,8.59474286" id="Fill-1" fill="#FFFFFF"></path>
            <path d="M1.4304386,8.28102857 C1.47035088,8.20002857 1.51508772,6.91131429 1.5295614,5.41731429 L1.55675439,2.7006 L0.778245614,2.73017143 L0.000175438596,2.75974286 L0.0234210526,1.62617143 L0.0475438596,0.492171429 L2.04052632,0.469885714 L4.03350877,0.447171429 L4.03350877,4.4376 L4.03350877,8.42802857 L2.69578947,8.42802857 C1.45105263,8.42802857 1.36289474,8.41774286 1.4304386,8.28102857" id="Fill-3" fill="#FFFFFF"></path>
            <path d="M4.54798246,4.43918571 L4.54798246,0.450042857 L6.3054386,0.450042857 L8.06289474,0.450042857 L8.06289474,1.6119 L8.06289474,2.77332857 L7.59140351,2.73518571 L7.11991228,2.69704286 L7.11991228,3.1269 L7.11991228,3.55718571 L7.84842105,3.55718571 L8.57736842,3.55718571 L8.57736842,2.00361429 L8.57736842,0.450042857 L9.86333333,0.450042857 L11.1492982,0.450042857 L11.1492982,4.43918571 L11.1492982,8.4279 L9.7795614,8.4279 L8.40982456,8.4279 L8.49359649,8.21232857 C8.53964912,8.09404286 8.57736842,7.43275714 8.57736842,6.74275714 L8.57736842,5.48875714 L7.84447368,5.48875714 L7.11157895,5.48875714 L7.13789474,6.81132857 C7.15192982,7.53904286 7.19666667,8.20032857 7.23657895,8.2809 C7.3045614,8.41761429 7.21464912,8.4279 5.92868421,8.4279 L4.54798246,8.4279 L4.54798246,4.43918571 Z" id="Fill-5" fill="#FFFFFF"></path>
            <path d="M11.5027632,8.28921429 C11.6817105,8.07835714 11.7229386,1.29321429 11.5483772,0.797357143 L11.4264474,0.450214286 L13.9023246,0.450214286 L16.3782018,0.450214286 L16.3782018,1.61378571 L16.3782018,2.77692857 L15.9282018,2.66164286 C15.6742544,2.59607143 15.1790789,2.55578571 14.7922368,2.56864286 L14.1067105,2.59178571 L14.0803947,3.08507143 L14.0545175,3.57878571 L14.7878509,3.54107143 L15.5211842,3.50335714 L15.5211842,4.48564286 L15.5211842,5.46835714 L15.1417982,5.38907143 C14.9330263,5.34535714 14.6150439,5.32178571 14.4347807,5.33635714 L14.1067105,5.36292857 L14.0799561,5.81292857 L14.0540789,6.26292857 L15.0233772,6.22135714 C15.5562719,6.19864286 16.0795175,6.15235714 16.1852193,6.1185 L16.3782018,6.05721429 L16.3782018,7.24264286 L16.3782018,8.42807143 L13.8817105,8.42807143 C11.5698684,8.42807143 11.3939912,8.41778571 11.5027632,8.28921429" id="Fill-7" fill="#FFFFFF"></path>
            <path d="M21.2360526,8.15507143 C20.0500877,5.37492857 18.0088596,0.869357143 17.8535965,0.6885 L17.6487719,0.450214286 L20.5285965,0.450214286 C22.1119298,0.450214286 23.4075439,0.4785 23.4075439,0.513214286 C23.4071053,0.547928571 23.2391228,1.01121429 23.0338596,1.54221429 L22.6601754,2.50778571 L22.0053509,2.53221429 C21.6452632,2.54592857 21.3505263,2.57121429 21.3505263,2.58835714 C21.3505263,2.66807143 22.1535965,4.78221429 22.2057895,4.84092857 C22.2382456,4.87692857 22.6435088,3.90407143 23.1057895,2.67835714 L23.9470175,0.450214286 L27.2777193,0.450214286 L30.6088596,0.450214286 L30.6088596,1.67678571 C30.6088596,2.81507143 30.5983333,2.89864286 30.4584211,2.83564286 C30.3764035,2.79878571 29.8553509,2.75378571 29.3014035,2.73578571 L28.294386,2.70364286 L28.294386,3.14121429 L28.294386,3.57835714 L29.0228947,3.54107143 L29.7514035,3.50335714 L29.7514035,4.48564286 L29.7514035,5.46835714 L29.3724561,5.38907143 C29.1636842,5.34578571 28.8457018,5.32178571 28.665,5.33635714 L28.3369298,5.36292857 L28.3114912,5.8455 L28.285614,6.3285 L29.0505263,6.3285 C29.5114912,6.3285 29.960614,6.27835714 30.1803509,6.2025 C30.3807895,6.1335 30.5588596,6.0765 30.5768421,6.0765 C30.594386,6.0765 30.6088596,6.60578571 30.6088596,7.2525 L30.6088596,8.42807143 L28.1123684,8.42807143 C26.067193,8.42807143 25.6325439,8.40792857 25.7084211,8.31792857 C25.8110526,8.1975 25.894386,2.38135714 25.794386,2.38178571 C25.7623684,2.38178571 25.1465789,3.74207143 24.4250877,5.40492857 L23.1119298,8.42807143 L22.2321053,8.42807143 L21.3527193,8.42807143 L21.2360526,8.15507143 Z" id="Fill-9" fill="#FFFFFF"></path>
            <path d="M30.9391228,0.449357143 L31.0088596,0.638357143 C31.1022807,0.890357143 31.1000877,8.09207143 31.0062281,8.27978571 C30.937807,8.41692857 31.0316667,8.42678571 32.4018421,8.42678571 C33.8285965,8.42678571 33.8707018,8.42207143 33.7842982,8.26392857 C33.735614,8.17478571 33.6957018,7.64378571 33.6957018,7.08321429 C33.6957018,6.06578571 33.6961404,6.0645 33.8891228,6.12021429 C34.2492105,6.22435714 34.7211404,6.57964286 34.9500877,6.91778571 C35.2071053,7.29964286 35.3123684,7.96735714 35.1584211,8.2485 L35.0597368,8.42678571 L36.5246491,8.42678571 C37.3816667,8.42678571 37.9702632,8.3955 37.942193,8.35092857 C37.9154386,8.30892857 37.8237719,7.85978571 37.735614,7.35364286 C37.5417544,6.2385 37.1935088,5.52921429 36.64,5.11521429 L36.2728947,4.83964286 L36.4821053,4.56407143 C37.1812281,3.63578571 37.0698246,2.08264286 36.2465789,1.27607143 C35.5759649,0.6195 34.8136842,0.452785714 32.5092982,0.451928571 L30.9391228,0.449357143 Z M33.8834211,2.5515 C33.9658772,2.55664286 34.085614,2.60207143 34.2557895,2.67192857 C34.7663158,2.88107143 34.8698246,3.4275 34.4728947,3.81621429 C34.3044737,3.98121429 34.135614,4.06007143 33.9584211,4.06007143 L33.6957018,4.06007143 L33.6957018,3.3045 C33.6957018,2.72721429 33.7018421,2.54035714 33.8834211,2.5515 L33.8834211,2.5515 Z" id="Fill-11" fill="#FFFFFF"></path>
            <g id="Group-15" transform="translate(44.736842, 0.067714)">
                <mask id="mask-2" fill="white">
                    <use xlink:href="#path-1"></use>
                </mask>
                <g id="Clip-14"></g>
                <path d="M0.0720614035,8.21331429 C0.165921053,8.02517143 0.168991228,0.823457143 0.0746929825,0.570171429 L0.00451754386,0.379885714 L2.47513158,0.402171429 L4.94574561,0.424457143 L4.96986842,1.58588571 L4.99399123,2.74688571 L4.79837719,2.68517143 C4.32337719,2.53602857 3.95890351,2.48588571 3.33872807,2.48417143 L2.67425439,2.48202857 L2.67425439,2.99631429 L2.67425439,3.5106 L3.40320175,3.47331429 L4.13171053,3.4356 L4.13171053,4.43717143 C4.13171053,5.35688571 4.11942982,5.43445714 3.98171053,5.38217143 C3.89925439,5.35045714 3.57513158,5.30374286 3.26197368,5.2776 L2.69267544,5.23045714 L2.66197368,5.67231429 C2.64048246,5.98131429 2.66504386,6.12702857 2.74355263,6.1566 C2.88872807,6.21102857 4.54486842,6.1236 4.79618421,6.04731429 L4.98872807,5.98945714 L4.98872807,7.17488571 L4.98872807,8.36031429 L2.49355263,8.36031429 C0.146622807,8.36031429 0.00276315789,8.35131429 0.0720614035,8.21331429" id="Fill-13" fill="#FFFFFF" mask="url(#mask-2)"></path>
            </g>
        </g>
    </g>
</svg>